<svg width="24" height="24" viewBox="0 0 24 24" fill="none" xmlns="http://www.w3.org/2000/svg">
<path d="M3.00006 21H21.0001M3.00006 7V8C3.00006 8.79565 3.31613 9.55871 3.87874 10.1213C4.44135 10.6839 5.20441 11 6.00006 11C6.79571 11 7.55877 10.6839 8.12138 10.1213C8.68399 9.55871 9.00006 8.79565 9.00006 8M3.00006 7H21.0001M3.00006 7L5.00006 3H19.0001L21.0001 7M9.00006 8V7M9.00006 8C9.00006 8.79565 9.31613 9.55871 9.87874 10.1213C10.4413 10.6839 11.2044 11 12.0001 11C12.7957 11 13.5588 10.6839 14.1214 10.1213C14.684 9.55871 15.0001 8.79565 15.0001 8M15.0001 8V7M15.0001 8C15.0001 8.79565 15.3161 9.55871 15.8787 10.1213C16.4413 10.6839 17.2044 11 18.0001 11C18.7957 11 19.5588 10.6839 20.1214 10.1213C20.684 9.55871 21.0001 8.79565 21.0001 8V7M5.00006 20.9996V10.8496M19.0001 20.9996V10.8496M9.00006 21V17C9.00006 16.4696 9.21078 15.9609 9.58585 15.5858C9.96092 15.2107 10.4696 15 11.0001 15H13.0001C13.5305 15 14.0392 15.2107 14.4143 15.5858C14.7893 15.9609 15.0001 16.4696 15.0001 17V21" stroke="#262C3A" stroke-width="2" stroke-linecap="round" stroke-linejoin="round"/>
</svg>
